<?xml version="1.0" encoding="utf-8"?>
<!-- Generator: Adobe Illustrator 19.0.0, SVG Export Plug-In . SVG Version: 6.00 Build 0)  -->
<svg version="1.2" baseProfile="tiny" xmlns="http://www.w3.org/2000/svg" xmlns:xlink="http://www.w3.org/1999/xlink" x="0px"
	 y="0px" viewBox="0 0 144.6612 51" xml:space="preserve">
<g id="Schutzraum" display="none">
	<rect x="-1.8798" y="-410.3959" display="inline" fill="#FFF5D8" width="155.9055" height="14.1732"/>
	<rect x="-1.8798" y="-374.5836" display="inline" fill="#FFF5D8" width="155.9055" height="14.1732"/>
	<rect x="12.2934" y="-360.4103" display="inline" fill="#FFCC00" width="7.0866" height="7.0866"/>
	<g id="Schutzzone" display="inline">
		<rect x="139.8525" y="-410.3959" fill="#FFF5D8" width="14.1732" height="49.9856"/>
		<rect x="-1.8798" y="-410.3959" fill="#FFF5D8" width="14.1732" height="49.9856"/>
		<rect x="139.8525" y="-374.5836" fill="#FFCC00" width="14.1732" height="14.1732"/>
		<rect x="-1.8798" y="-374.5836" fill="#FFCC00" width="14.1732" height="14.1732"/>
	</g>
	<rect x="139.8525" y="-410.3959" display="inline" fill="#FFCC00" width="14.1732" height="14.1732"/>
	<rect x="-1.8798" y="-410.3959" display="inline" fill="#FFCC00" width="14.1732" height="14.1732"/>
</g>
<g id="Logo_1_">
	<path d="M64.7062,9.391h-5.0547v14.1153h5.0547V9.391z M35.834,9.391h-5.0491v14.1153h5.0547L35.834,9.391z M23.1582,13.5642
		c-0.0025-5.1552-3.4149-9.687-8.3687-11.1137c0.7922,0.3905,1.2776,0.9317,1.2776,1.5287c0,1.2051-1.975,2.1759-4.4131,2.1759
		S7.252,5.1955,7.252,3.9904c0-0.6472,0.5579-1.233,1.5008-1.6291C2.5647,3.907-1.1987,10.1766,0.3471,16.3647
		c0.7579,3.0341,2.7139,5.6312,5.4208,7.1974c-1.5398-2.2205-2.0476-4.9766-2.0476-7.6937S4.6019,9.5193,5.952,7.3602
		c1.7133,0.874,3.6173,1.3073,5.5401,1.2609c0.3459,0,0.6807,0,1.0154-0.0335c-1.1486,2.4442-1.7484,5.1102-1.7574,7.8108v0.0335
		l0.0335,1.763c0,3.2917,1.0489,6.1371,2.6278,6.5946c0.1547,0.0406,0.3143,0.0594,0.4742,0.0558
		c0.189-0.0017,0.3768-0.0298,0.5579-0.0837C19.56,23.4501,23.1431,18.8461,23.1582,13.5642 M36.1632,5.4856
		c-0.0031-1.5745-1.282-2.8484-2.8565-2.8454c-1.5745,0.0031-2.8484,1.282-2.8454,2.8565c0.0031,1.5724,1.2786,2.8454,2.8509,2.8454
		c1.5745,0,2.851-1.2764,2.851-2.8509C36.1632,5.4893,36.1632,5.4875,36.1632,5.4856 M46.8975,23.5175h5.0547v-9.8361
		c-0.0092-2.3605-1.9188-4.2726-4.2792-4.2848H37.1619v14.1153h5.0547v-8.0898c0-1.2849,1.0416-2.3265,2.3265-2.3265
		c1.284,0.0028,2.3301,1.0316,2.3544,2.3154c0,3.8329,0,8.1009,0,8.1009 M53.2745,23.5119h5.0547V1.9261h-5.077L53.2745,23.5119z
		 M65.0354,5.48c0-1.5745-1.2764-2.851-2.851-2.8509s-2.851,1.2764-2.8509,2.851c0,1.5724,1.273,2.8479,2.8454,2.8509
		c1.5745,0,2.851-1.2764,2.851-2.8509c0-0.0019,0-0.0037,0-0.0056 M75.7641,23.4951h5.0547v-9.8305
		c-0.0061-2.3661-1.9243-4.2817-4.2904-4.2848H66.0396v14.1153h5.0659v-8.0898c0-1.2849,1.0416-2.3265,2.3265-2.3265
		c1.284,0.0028,2.3301,1.0316,2.3544,2.3154c0,3.8329,0,8.1009,0,8.1009 M92.0497,16.5379c0.066,0.9901-0.2404,1.9692-0.8592,2.7449
		c-0.4394,0.4537-1.0421,0.7129-1.6738,0.7197h-0.0614c-0.6318-0.0062-1.2347-0.2654-1.6738-0.7197
		c-0.6333-0.7701-0.9557-1.7492-0.9038-2.7449c-0.0529-1.0104,0.2712-2.0045,0.9094-2.7896
		c0.4391-0.4543,1.042-0.7135,1.6738-0.7197h0.0558c0.6316,0.0068,1.2343,0.266,1.6738,0.7197
		c0.6078,0.797,0.8998,1.7904,0.8201,2.7896 M96.6916,24.5496V9.4022h-9.2447c-1.8802,0-5.6294,0.9764-5.6294,6.9572
		c0,6.5834,4.3852,7.1581,5.6294,7.1581h4.3294c0,1.2944-0.7085,2.2317-1.5622,2.4214c-0.2064,0.0514-0.4178,0.0795-0.6304,0.0837
		c-0.2491-0.0005-0.4976-0.0247-0.742-0.0725c-0.7794-0.0965-1.377-0.7388-1.4171-1.5231c0-0.0893,0-0.2176,0-0.2176h-5.1607v0.3403
		c-0.0564,1.2845,0.4437,2.5309,1.3725,3.42c1.0489,0.9596,3.0239,1.5064,5.7075,1.5398h0.2566
		c2.4214-0.0446,4.4633-0.7253,5.5345-1.6737c0.9746-0.8095,1.5422-2.008,1.551-3.275 M112.7986,23.5342V9.4022h-5.0547v8.0675
		c0,1.2849-1.0416,2.3265-2.3265,2.3265c-1.284-0.0028-2.3301-1.0316-2.3544-2.3154c0-3.8329,0-8.1009,0-8.1009h-5.0547v9.8584
		c0.0122,2.3756,1.948,4.2916,4.3236,4.2793c0.0057,0,0.0113-0.0001,0.017-0.0001L112.7986,23.5342z M122.1995,17.8825
		c0,1.3223-0.636,2.293-1.9527,2.3265c-0.8524,0.0539-1.5999-0.5641-1.7072-1.4115c0-0.7755,0.809-1.4004,1.7017-1.4004h1.9583
		V17.8825z M125.8036,10.4845c-1.4952-1.166-3.0462-1.3836-4.9487-1.3725c-1.9025,0.0112-3.4702,0.2064-4.9655,1.3725
		c-1.1158,0.8592-1.5008,2.1368-1.5008,3.7548l0,0h4.5191c-0.0623-0.4674,0.0754-0.9394,0.3794-1.2999
		c0.2933-0.2999,0.6963-0.4672,1.1158-0.4631h0.357c0.4204-0.0269,0.8347,0.1112,1.1549,0.385
		c0.2832,0.4685,0.3992,1.0192,0.3292,1.5622v0.4017h-2.7896c-3.0016,0-5.953,1.2218-5.953,4.5024c0,1.2999,0.915,4.19,4.5916,4.19
		h9.2447v-9.2949c0-1.6124-0.3905-2.89-1.4952-3.7548 M125.8929,5.7813c0,0.2343-0.1227,0.3236-0.385,0.3236H124.95v-0.636h0.6193
		c0.2901,0,0.3459,0.1841,0.3459,0.3124 M125.9152,7.455h0.5579V7.3937c-0.106-0.0391-0.106-0.1283-0.106-0.4742
		c0-0.4408-0.106-0.5189-0.3013-0.6025c0.2329-0.0837,0.3828-0.3109,0.3682-0.5579c0.0056-0.3697-0.2896-0.674-0.6593-0.6796
		c-0.0295-0.0004-0.059,0.0011-0.0883,0.0045h-1.1995v2.3432h0.4854V6.5066h0.5133c0.3682,0,0.385,0.1283,0.385,0.4519
		c-0.0065,0.1619,0.0123,0.3237,0.0558,0.4798 M127.1371,6.2444c0,0.9644-0.7818,1.7463-1.7463,1.7463
		c-0.9644,0-1.7463-0.7818-1.7463-1.7463c0-0.9644,0.7818-1.7463,1.7463-1.7463C126.3552,4.4981,127.1371,5.2799,127.1371,6.2444
		L127.1371,6.2444 M127.6336,6.2444c0-1.2325-0.9992-2.2317-2.2317-2.2317s-2.2317,0.9992-2.2317,2.2317
		s0.9992,2.2317,2.2317,2.2317S127.6336,7.4769,127.6336,6.2444"/>
	<path fill="#666666" d="M138.5241,14.2616c1.3557,0,1.3725,1.6737,1.3725,4.3573c0,1.6737,0.1004,3.805-1.3725,3.805
		s-1.3725-2.1201-1.3725-3.805C137.1517,15.9242,137.1517,14.2616,138.5241,14.2616 M138.5241,13.1458
		c-2.7394,0-2.6947,2.5106-2.6947,5.2054c0,2.611,0,5.1775,2.6947,5.1775c2.6947,0,2.6947-2.5664,2.6947-5.1775
		C141.2189,15.6564,141.2635,13.1458,138.5241,13.1458"/>
	<path fill="#666666" d="M136.1753,1.9261v5.6238h1.1939c0.0355-0.6525,0.5739-1.1641,1.2274-1.166
		c1.2386,0,1.2832,1.1158,1.2832,2.5943c0,0.9819-0.0837,2.2317-1.339,2.2317c-0.8815,0-1.1828-0.7365-1.1828-1.512h-1.3279
		c0,1.339,0.3905,2.4827,2.466,2.4827c2.5106,0,2.7115-1.9025,2.7115-3.5037c0-2.3098-0.6639-3.3475-2.0922-3.3475
		c-0.6207-0.0352-1.217,0.2462-1.5845,0.7476l-0.0335-0.0837V3.081h3.3475V1.9261H136.1753z"/>
	<path fill="#666666" d="M142.848,22.6136c0,0.279,0,0.9317,0.848,0.9261c0.4798,0,0.8982-0.1953,0.8982-0.809
		c0-0.9206-1.2999-0.8257-1.2999-1.4673c-0.0103-0.2247,0.1635-0.4152,0.3882-0.4255c0.0194-0.0009,0.0388-0.0004,0.0581,0.0015
		c0.3515,0,0.4519,0.212,0.4463,0.5244h0.3849c0.0781-0.3866-0.172-0.7633-0.5586-0.8414
		c-0.0806-0.0163-0.1635-0.0185-0.2448-0.0066c-0.4192-0.0496-0.7993,0.2501-0.8488,0.6693
		c-0.0046,0.0389-0.0062,0.0782-0.0048,0.1174c0,0.8703,1.2999,0.7978,1.2999,1.445c0,0.3459-0.2232,0.4686-0.5189,0.4686
		c-0.252,0.0178-0.4707-0.1721-0.4885-0.4242c-0.0022-0.0316-0.0012-0.0633,0.0031-0.0947v-0.0837L142.848,22.6136z"/>
	<path fill="#666666" d="M143.7239,17.4696c0.2103-0.0309,0.4059,0.1145,0.4369,0.3249c0.0021,0.0144,0.0034,0.0288,0.0039,0.0434
		c-0.0099,0.3254,0.0276,0.6506,0.1116,0.9652h0.385c-0.0549-0.2496-0.0885-0.5035-0.1004-0.7588
		c0-0.5579-0.1395-0.6974-0.4742-0.7476l0,0c0.3343-0.0352,0.5808-0.3286,0.5579-0.6639c0.0411-0.3582-0.216-0.6818-0.5742-0.7229
		c-0.0409-0.0047-0.0822-0.0055-0.1232-0.0024h-0.9987v2.9012h0.3682v-1.339H143.7239z M143.2887,16.2255h0.5579
		c0.2188,0.0017,0.3947,0.1804,0.3931,0.3992c-0.0001,0.0139-0.0009,0.0278-0.0025,0.0416c0,0.2511-0.1283,0.4798-0.3961,0.4798
		h-0.5579L143.2887,16.2255z"/>
	<path fill="#666666" d="M143.6904,11.5892L143.6904,11.5892l0.4686,1.5454h-0.9261L143.6904,11.5892z M143.4728,11.2489
		l-0.9205,2.9012h0.3738l0.2176-0.6918h1.1158l0.212,0.6918h0.4128l-0.9429-2.9012H143.4728z"/>
	<polygon fill="#666666" points="143.0377,6.5903 143.0377,9.4914 144.5608,9.4914 144.5608,9.1678 143.4059,9.1678 
		143.4059,8.1636 144.4548,8.1636 144.4548,7.84 143.4059,7.84 143.4059,6.9083 144.5329,6.9083 144.5329,6.5903 	"/>
	<polygon fill="#666666" points="144.3153,1.9261 143.7239,3.332 143.1604,1.9261 142.7476,1.9261 143.5231,3.7226 143.5231,4.8273 
		143.8969,4.8273 143.8969,3.7226 144.6891,1.9261 	"/>
	<polygon fill="#666666" points="133.6256,1.9261 129.1958,23.5342 130.585,23.5342 135.0093,1.9261 	"/>
	<g id="XMLID_44_">
		<g id="XMLID_60_">
			<path id="XMLID_5_" d="M102.656,31.5985h2.4986v1.2495h-4.0629v-6.7417h1.5644V31.5985z"/>
		</g>
		<g id="XMLID_58_">
			<path id="XMLID_7_" d="M110.1609,26.1063v1.2034h-2.7667v1.5727h2.1189v1.1572h-2.1189v1.6051h2.7667v1.2034h-4.3404v-6.7417
				H110.1609z"/>
		</g>
		<g id="XMLID_55_">
			<path id="XMLID_8_" d="M115.492,26.1063v1.2034h-2.7667v1.5727h2.1189v1.1572h-2.1189v1.6051h2.7667v1.2034h-4.3404v-6.7417
				H115.492z"/>
		</g>
		<g id="XMLID_50_">
			<path id="XMLID_9_" d="M122.6007,29.4747c0,0.4872-0.084,0.9371-0.2525,1.3487c-0.168,0.4116-0.4047,0.7682-0.7102,1.0688
				c-0.3055,0.3006-0.6729,0.5354-1.1036,0.7033c-0.4303,0.168-0.9077,0.2525-1.4317,0.2525h-2.6194v-6.7417h2.6194
				c0.5241,0,1.0015,0.0845,1.4317,0.2544c0.4307,0.1699,0.7981,0.4037,1.1036,0.7033s0.5422,0.6552,0.7102,1.0668
				C122.5167,28.5425,122.6007,28.9904,122.6007,29.4747z M120.9995,29.4747c0-0.333-0.0432-0.6336-0.1297-0.9018
				c-0.086-0.2692-0.2102-0.4961-0.3723-0.6827c-0.1621-0.1866-0.36-0.3301-0.5948-0.4303
				c-0.2343-0.1002-0.501-0.1503-0.8001-0.1503h-1.0457v4.335h1.0457c0.2991,0,0.5658-0.0501,0.8001-0.1503
				c0.2348-0.1002,0.4327-0.2436,0.5948-0.4303c0.1621-0.1866,0.2864-0.4136,0.3723-0.6827
				C120.9562,30.1132,120.9995,29.8107,120.9995,29.4747z"/>
		</g>
		<g id="XMLID_46_">
			<path id="XMLID_10_" d="M127.1523,27.4757c-0.0462,0.0747-0.0948,0.1297-0.1459,0.167c-0.0506,0.0363-0.1164,0.055-0.1965,0.055
				c-0.0712,0-0.1473-0.0216-0.2289-0.0668c-0.082-0.0442-0.1744-0.0953-0.278-0.1503c-0.1031-0.056-0.221-0.1061-0.3536-0.1503
				c-0.1326-0.0452-0.2839-0.0668-0.4533-0.0668c-0.2932,0-0.5113,0.0619-0.6552,0.1866c-0.1434,0.1248-0.2151,0.2937-0.2151,0.5069
				c0,0.1356,0.0432,0.2485,0.1297,0.3379c0.0864,0.0894,0.1999,0.167,0.3404,0.2308c0.14,0.0648,0.3006,0.1248,0.4809,0.1788
				c0.1807,0.054,0.3649,0.1139,0.553,0.1807c0.1881,0.0658,0.3728,0.1434,0.5531,0.2328c0.1803,0.0904,0.3409,0.2043,0.4813,0.3428
				c0.14,0.1385,0.2534,0.3075,0.3399,0.5069c0.0864,0.1984,0.1297,0.4391,0.1297,0.7191c0,0.3114-0.054,0.6031-0.1621,0.8753
				c-0.1081,0.2711-0.2642,0.5079-0.4696,0.7102c-0.2053,0.2014-0.4583,0.3605-0.7589,0.4764
				c-0.3006,0.1149-0.6424,0.1729-1.0251,0.1729c-0.2097,0-0.4234-0.0216-0.6405-0.0648c-0.2176-0.0432-0.4283-0.1041-0.6316-0.1827
				c-0.2038-0.0786-0.3949-0.1719-0.5742-0.28c-0.1788-0.1081-0.3345-0.2279-0.4671-0.3605l0.4627-0.7309
				c0.0339-0.056,0.0815-0.1002,0.1434-0.1346c0.0619-0.0334,0.1282-0.0511,0.1989-0.0511c0.0928,0,0.1857,0.0295,0.28,0.0884
				c0.0943,0.058,0.2004,0.1228,0.3193,0.1945c0.1189,0.0707,0.2554,0.1356,0.4096,0.1935c0.1542,0.0589,0.336,0.0884,0.5457,0.0884
				c0.2839,0,0.5044-0.0629,0.6621-0.1876c0.1572-0.1248,0.2358-0.3232,0.2358-0.5943c0-0.1572-0.0432-0.2859-0.1297-0.3841
				c-0.0864-0.0992-0.1994-0.1807-0.3399-0.2456c-0.1405-0.0648-0.3001-0.1218-0.4789-0.1709
				c-0.1788-0.0491-0.3625-0.1041-0.5506-0.164c-0.1881-0.0599-0.3718-0.1346-0.5506-0.222
				c-0.1793-0.0884-0.3389-0.2043-0.4789-0.3477c-0.1405-0.1434-0.2539-0.3222-0.3404-0.5364
				c-0.0864-0.2141-0.1297-0.4794-0.1297-0.7937c0-0.2525,0.0511-0.5,0.1528-0.7397c0.1022-0.2407,0.2515-0.4558,0.4489-0.6434
				c0.1974-0.1886,0.4396-0.3389,0.7264-0.4509c0.2868-0.113,0.6154-0.169,0.9858-0.169c0.2068,0,0.4077,0.0157,0.6036,0.0481
				s0.3816,0.0806,0.5575,0.1434c0.1758,0.0629,0.3404,0.1385,0.4931,0.2269c0.1527,0.0874,0.2893,0.1876,0.4096,0.2986
				L127.1523,27.4757z"/>
		</g>
	</g>
	<g>
		<path d="M5.1184,41.4873C5.0739,41.543,5.031,41.5869,4.989,41.6191s-0.103,0.0479-0.1826,0.0479
			c-0.0762,0-0.1504-0.0234-0.2222-0.0693S4.426,41.5,4.3264,41.4414c-0.1001-0.0576-0.2192-0.1094-0.3569-0.1553
			c-0.1382-0.0459-0.3091-0.0693-0.5132-0.0693c-0.2603,0-0.4883,0.0469-0.6841,0.1406c-0.1958,0.0947-0.3589,0.2295-0.4888,0.4053
			c-0.1304,0.1758-0.2271,0.3896-0.291,0.6387c-0.0645,0.25-0.0962,0.5332-0.0962,0.8496c0,0.3281,0.0352,0.6201,0.105,0.876
			s0.1709,0.4707,0.3032,0.6445c0.1318,0.1748,0.2915,0.3066,0.48,0.3965c0.188,0.0898,0.3999,0.1348,0.6357,0.1348
			s0.4272-0.0293,0.5732-0.0869s0.269-0.1221,0.3687-0.1924c0.1001-0.0693,0.187-0.1338,0.2612-0.1914
			c0.0737-0.0586,0.1567-0.0869,0.249-0.0869c0.1201,0,0.21,0.0459,0.27,0.1377l0.4258,0.54
			c-0.1641,0.1924-0.3418,0.3535-0.5337,0.4834c-0.1924,0.1299-0.3911,0.2334-0.5972,0.3115s-0.4189,0.1328-0.6392,0.165
			c-0.2197,0.0322-0.438,0.0479-0.6538,0.0479c-0.3799,0-0.7383-0.0713-1.0742-0.2129s-0.6289-0.3486-0.8789-0.6211
			c-0.25-0.2715-0.4478-0.6045-0.5938-0.999c-0.146-0.3936-0.2192-0.8428-0.2192-1.3467c0-0.4521,0.0649-0.8711,0.1953-1.2568
			c0.1299-0.3867,0.3208-0.7207,0.5728-1.002c0.252-0.2822,0.564-0.5029,0.936-0.6631s0.7998-0.2402,1.2842-0.2402
			c0.46,0,0.8628,0.0742,1.209,0.2217c0.3457,0.1484,0.6567,0.3604,0.9326,0.6367L5.1184,41.4873z"/>
		<path d="M6.5158,46.3408v-6.1563h0.8701c0.1519,0,0.2578,0.0283,0.3179,0.084c0.0601,0.0566,0.1001,0.1523,0.1201,0.2881
			l0.0898,0.7441c0.2202-0.3799,0.478-0.6797,0.7739-0.9004c0.2959-0.2197,0.6279-0.3291,0.9961-0.3291
			c0.3042,0,0.5562,0.0693,0.7559,0.21l-0.1919,1.1094c-0.0117,0.0723-0.0381,0.123-0.0781,0.1533s-0.0938,0.0449-0.1616,0.0449
			c-0.0601,0-0.1421-0.0137-0.2461-0.042s-0.2422-0.042-0.4141-0.042c-0.3081,0-0.5723,0.085-0.792,0.2549
			c-0.2202,0.1699-0.4063,0.4189-0.5581,0.7471v3.834H6.5158z"/>
		<path d="M14.0461,40.0889c0.46,0,0.877,0.0742,1.251,0.2217c0.374,0.1484,0.6929,0.3584,0.957,0.6299
			c0.2642,0.2725,0.4683,0.6045,0.6123,0.9961c0.1436,0.3926,0.2158,0.8301,0.2158,1.3145c0,0.4883-0.0723,0.9277-0.2158,1.3203
			c-0.144,0.3916-0.3481,0.7256-0.6123,1.002c-0.2642,0.2754-0.583,0.4873-0.957,0.6357c-0.374,0.1475-0.791,0.2217-1.251,0.2217
			s-0.8779-0.0742-1.2539-0.2217c-0.376-0.1484-0.6973-0.3604-0.9629-0.6357c-0.2661-0.2764-0.4722-0.6104-0.6182-1.002
			c-0.146-0.3926-0.2188-0.832-0.2188-1.3203c0-0.4844,0.0728-0.9219,0.2188-1.3145c0.146-0.3916,0.3521-0.7236,0.6182-0.9961
			c0.2656-0.2715,0.5869-0.4814,0.9629-0.6299C13.1682,40.1631,13.5861,40.0889,14.0461,40.0889z M14.0461,45.291
			c0.5122,0,0.8911-0.1719,1.1372-0.5166c0.2461-0.3438,0.3687-0.8477,0.3687-1.5117s-0.1226-1.1699-0.3687-1.5176
			c-0.2461-0.3486-0.625-0.5225-1.1372-0.5225c-0.52,0-0.9038,0.1748-1.1519,0.5254c-0.248,0.3496-0.3721,0.8545-0.3721,1.5146
			s0.124,1.1631,0.3721,1.5088C13.1423,45.1182,13.5261,45.291,14.0461,45.291z"/>
		<path d="M21.8937,41.3848c-0.04,0.0645-0.082,0.1094-0.126,0.1348c-0.0439,0.0264-0.1001,0.0391-0.168,0.0391
			c-0.0718,0-0.1489-0.0195-0.231-0.0596s-0.1768-0.085-0.2847-0.1348c-0.1084-0.0508-0.2314-0.0957-0.3691-0.1357
			c-0.1382-0.04-0.3013-0.0596-0.4893-0.0596c-0.292,0-0.522,0.0615-0.6899,0.1855s-0.252,0.2861-0.252,0.4863
			c0,0.1318,0.043,0.2432,0.1289,0.333s0.2002,0.1689,0.3423,0.2373c0.1416,0.0674,0.3027,0.1289,0.4829,0.1826
			s0.3638,0.1133,0.5518,0.1768c0.188,0.0645,0.3721,0.1377,0.5522,0.2197s0.3408,0.1855,0.4829,0.3115s0.2559,0.2773,0.3423,0.4531
			c0.0859,0.1758,0.1289,0.3877,0.1289,0.6357c0,0.2959-0.0542,0.5693-0.1621,0.8193s-0.2661,0.4658-0.4741,0.6475
			c-0.208,0.1826-0.4648,0.3242-0.771,0.4268c-0.3062,0.1016-0.6567,0.1523-1.0527,0.1523c-0.2124,0-0.4194-0.0186-0.6211-0.0566
			c-0.2021-0.0381-0.396-0.0908-0.582-0.1592c-0.186-0.0674-0.3579-0.1475-0.5161-0.2402c-0.1582-0.0918-0.2969-0.1914-0.417-0.2998
			l0.3423-0.5635c0.0439-0.0684,0.0957-0.1201,0.1558-0.1563s0.1357-0.0537,0.228-0.0537c0.0918,0,0.1787,0.0254,0.2607,0.0771
			c0.082,0.0527,0.1772,0.1084,0.2852,0.168c0.1079,0.0605,0.2349,0.1162,0.3809,0.1689c0.146,0.0518,0.3311,0.0771,0.5552,0.0771
			c0.1758,0,0.3271-0.0205,0.4531-0.0625s0.23-0.0967,0.312-0.165s0.1416-0.1475,0.1797-0.2373s0.0571-0.1826,0.0571-0.2783
			c0-0.1445-0.043-0.2627-0.1289-0.3545s-0.2002-0.1719-0.3418-0.2402c-0.1421-0.0674-0.3042-0.1289-0.4863-0.1826
			s-0.3682-0.1133-0.5581-0.1768c-0.1899-0.0645-0.376-0.1396-0.5576-0.2256c-0.1821-0.0859-0.3442-0.1943-0.4863-0.3271
			c-0.1421-0.1318-0.2559-0.2939-0.3418-0.4854c-0.0859-0.1924-0.1289-0.4238-0.1289-0.6963c0-0.252,0.0498-0.4922,0.1499-0.7197
			c0.1001-0.2285,0.2471-0.4268,0.4409-0.5977c0.1938-0.1699,0.436-0.3057,0.7261-0.4072c0.29-0.1025,0.625-0.1533,1.0049-0.1533
			c0.4238,0,0.8101,0.0703,1.1582,0.21c0.3477,0.1396,0.6377,0.3242,0.8701,0.5518L21.8937,41.3848z"/>
		<path d="M27.1379,41.3848c-0.04,0.0645-0.082,0.1094-0.126,0.1348c-0.0439,0.0264-0.1001,0.0391-0.168,0.0391
			c-0.0718,0-0.1489-0.0195-0.231-0.0596s-0.1768-0.085-0.2847-0.1348c-0.1084-0.0508-0.2314-0.0957-0.3691-0.1357
			c-0.1382-0.04-0.3013-0.0596-0.4893-0.0596c-0.292,0-0.522,0.0615-0.6899,0.1855s-0.252,0.2861-0.252,0.4863
			c0,0.1318,0.043,0.2432,0.1289,0.333s0.2002,0.1689,0.3423,0.2373c0.1416,0.0674,0.3027,0.1289,0.4829,0.1826
			s0.3638,0.1133,0.5518,0.1768c0.188,0.0645,0.3721,0.1377,0.5522,0.2197s0.3408,0.1855,0.4829,0.3115s0.2559,0.2773,0.3423,0.4531
			c0.0859,0.1758,0.1289,0.3877,0.1289,0.6357c0,0.2959-0.0542,0.5693-0.1621,0.8193s-0.2661,0.4658-0.4741,0.6475
			c-0.208,0.1826-0.4648,0.3242-0.771,0.4268c-0.3062,0.1016-0.6567,0.1523-1.0527,0.1523c-0.2124,0-0.4194-0.0186-0.6211-0.0566
			c-0.2021-0.0381-0.396-0.0908-0.582-0.1592c-0.186-0.0674-0.3579-0.1475-0.5161-0.2402c-0.1582-0.0918-0.2969-0.1914-0.417-0.2998
			l0.3423-0.5635c0.0439-0.0684,0.0957-0.1201,0.1558-0.1563s0.1357-0.0537,0.228-0.0537c0.0918,0,0.1787,0.0254,0.2607,0.0771
			c0.082,0.0527,0.1772,0.1084,0.2852,0.168c0.1079,0.0605,0.2349,0.1162,0.3809,0.1689c0.146,0.0518,0.3311,0.0771,0.5552,0.0771
			c0.1758,0,0.3271-0.0205,0.4531-0.0625s0.23-0.0967,0.312-0.165s0.1416-0.1475,0.1797-0.2373s0.0571-0.1826,0.0571-0.2783
			c0-0.1445-0.043-0.2627-0.1289-0.3545s-0.2002-0.1719-0.3418-0.2402c-0.1421-0.0674-0.3042-0.1289-0.4863-0.1826
			s-0.3682-0.1133-0.5581-0.1768c-0.1899-0.0645-0.376-0.1396-0.5576-0.2256c-0.1821-0.0859-0.3442-0.1943-0.4863-0.3271
			c-0.1421-0.1318-0.2559-0.2939-0.3418-0.4854c-0.0859-0.1924-0.1289-0.4238-0.1289-0.6963c0-0.252,0.0498-0.4922,0.1499-0.7197
			c0.1001-0.2285,0.2471-0.4268,0.4409-0.5977c0.1938-0.1699,0.436-0.3057,0.7261-0.4072c0.29-0.1025,0.625-0.1533,1.0049-0.1533
			c0.4238,0,0.8101,0.0703,1.1582,0.21c0.3477,0.1396,0.6377,0.3242,0.8701,0.5518L27.1379,41.3848z"/>
		<path d="M30.5275,38.3906c0,0.1279-0.0259,0.248-0.0776,0.3604c-0.0522,0.1123-0.1211,0.21-0.207,0.2939
			c-0.0864,0.084-0.187,0.1514-0.3032,0.2012s-0.2397,0.0752-0.3721,0.0752c-0.1279,0-0.249-0.0254-0.3628-0.0752
			c-0.1143-0.0498-0.2129-0.1172-0.2969-0.2012s-0.1514-0.1816-0.2012-0.2939c-0.0503-0.1123-0.0752-0.2324-0.0752-0.3604
			c0-0.1318,0.0249-0.2559,0.0752-0.3721c0.0498-0.1152,0.1172-0.2158,0.2012-0.2998s0.1826-0.1504,0.2969-0.2012
			c0.1138-0.0498,0.2349-0.0752,0.3628-0.0752c0.1323,0,0.2559,0.0254,0.3721,0.0752c0.1162,0.0508,0.2168,0.1172,0.3032,0.2012
			c0.0859,0.084,0.1548,0.1846,0.207,0.2998C30.5017,38.1348,30.5275,38.2588,30.5275,38.3906z M30.3059,40.1846v6.1563h-1.4819
			v-6.1563H30.3059z"/>
		<path d="M31.9797,46.3408v-6.1563h0.9063c0.1919,0,0.3179,0.0898,0.3779,0.2705l0.1021,0.4854
			c0.1235-0.1279,0.2549-0.2432,0.3926-0.3477c0.1382-0.1035,0.2842-0.1943,0.438-0.2695c0.1543-0.0762,0.3193-0.1348,0.4951-0.1748
			c0.1763-0.04,0.3682-0.0596,0.5762-0.0596c0.3359,0,0.6338,0.0566,0.894,0.1709c0.2598,0.1143,0.4771,0.2744,0.6509,0.4805
			s0.3062,0.4512,0.396,0.7373s0.1348,0.6016,0.1348,0.9453v3.918h-1.4819v-3.918c0-0.376-0.0869-0.667-0.2607-0.873
			c-0.1743-0.2061-0.4351-0.3086-0.7832-0.3086c-0.2559,0-0.4961,0.0576-0.7197,0.1738c-0.2241,0.1162-0.436,0.2734-0.6362,0.4736
			v4.4521H31.9797z"/>
		<path d="M40.9318,40.0771c0.2642,0,0.5122,0.0264,0.7441,0.0811c0.2319,0.0537,0.4438,0.1328,0.6357,0.2363h1.77v0.5527
			c0,0.0918-0.0239,0.1641-0.0718,0.2158s-0.1299,0.0879-0.2461,0.1074l-0.5518,0.1025c0.0396,0.1035,0.0708,0.2139,0.0928,0.3301
			s0.0332,0.2373,0.0332,0.3652c0,0.3047-0.061,0.5791-0.1831,0.8252s-0.29,0.4551-0.5039,0.627
			c-0.2144,0.1719-0.4683,0.3057-0.7622,0.3994s-0.6128,0.1406-0.957,0.1406c-0.2319,0-0.458-0.0215-0.6777-0.0654
			c-0.1924,0.1162-0.2881,0.248-0.2881,0.3926c0,0.125,0.0571,0.2168,0.1709,0.2754c0.1143,0.0576,0.2642,0.0996,0.4502,0.123
			c0.186,0.0244,0.397,0.0371,0.6328,0.0371s0.478,0.0098,0.7261,0.0293c0.248,0.0205,0.4897,0.0557,0.7261,0.1055
			c0.2358,0.0508,0.4468,0.1299,0.6328,0.2383s0.3359,0.2559,0.4502,0.4424c0.1138,0.1865,0.1709,0.4258,0.1709,0.7188
			c0,0.2734-0.0669,0.5381-0.2012,0.7949c-0.1338,0.2568-0.3276,0.4854-0.582,0.6865c-0.2539,0.2002-0.5649,0.3623-0.9326,0.4844
			c-0.3682,0.1221-0.7881,0.1836-1.2603,0.1836c-0.4678,0-0.874-0.0449-1.2178-0.1348c-0.3442-0.0898-0.6294-0.21-0.855-0.3604
			c-0.2261-0.1494-0.395-0.3232-0.5073-0.5186c-0.1118-0.1963-0.168-0.4004-0.168-0.6123c0-0.2881,0.0879-0.5303,0.2642-0.7256
			c0.1758-0.1963,0.4199-0.3525,0.7319-0.4688c-0.1519-0.084-0.2739-0.1953-0.3662-0.3359
			c-0.0918-0.1396-0.1377-0.3213-0.1377-0.5459c0-0.0918,0.0156-0.1865,0.0479-0.2852c0.0322-0.0977,0.0811-0.1943,0.147-0.291
			c0.0659-0.0957,0.1489-0.1865,0.249-0.2725s0.2183-0.1631,0.354-0.2314c-0.312-0.168-0.5571-0.3916-0.7349-0.6719
			c-0.1782-0.2803-0.2671-0.6074-0.2671-0.9844c0-0.3037,0.061-0.5781,0.1831-0.8242s0.292-0.4561,0.5098-0.6299
			c0.2183-0.1748,0.4761-0.3076,0.7739-0.3994C40.2551,40.123,40.5798,40.0771,40.9318,40.0771z M42.5578,46.5996
			c0-0.123-0.0356-0.2227-0.1079-0.3008c-0.0718-0.0771-0.1699-0.1377-0.2939-0.1807s-0.269-0.0742-0.4351-0.0947
			s-0.3418-0.0303-0.5278-0.0303s-0.3779,0-0.5762,0c-0.1978,0-0.3892-0.0225-0.5728-0.0664
			c-0.168,0.0918-0.3032,0.2012-0.4053,0.3271s-0.1528,0.2705-0.1528,0.4346c0,0.1084,0.0269,0.209,0.0811,0.3037
			c0.0537,0.0938,0.1396,0.1748,0.2578,0.2422c0.1182,0.0684,0.271,0.1211,0.459,0.1592s0.418,0.0576,0.6899,0.0576
			c0.2764,0,0.5142-0.0215,0.7144-0.0645c0.1997-0.043,0.3647-0.1025,0.4946-0.1777c0.1299-0.0762,0.2251-0.166,0.2852-0.2695
			C42.528,46.835,42.5578,46.7217,42.5578,46.5996z M40.9318,43.1133c0.1841,0,0.3442-0.0254,0.48-0.0752
			c0.1362-0.0498,0.249-0.1191,0.3394-0.207c0.0898-0.0879,0.1577-0.1943,0.2036-0.3184s0.0693-0.2598,0.0693-0.4082
			c0-0.3037-0.0913-0.5449-0.2729-0.7227c-0.1821-0.1777-0.4551-0.2666-0.8193-0.2666c-0.3638,0-0.6367,0.0889-0.8188,0.2666
			S39.84,41.8008,39.84,42.1045c0,0.1445,0.0229,0.2783,0.0688,0.4023s0.1143,0.2314,0.2041,0.3213s0.2041,0.1602,0.3418,0.21
			C40.593,43.0879,40.7521,43.1133,40.9318,43.1133z"/>
		<path d="M48.9055,37.4248v8.916h-1.4819v-8.916H48.9055z"/>
		<path d="M55.4035,46.3408h-0.666c-0.1401,0-0.25-0.0215-0.3301-0.0635s-0.1401-0.126-0.1802-0.2549l-0.1318-0.4375
			c-0.1563,0.1396-0.3091,0.2627-0.459,0.3691c-0.1499,0.1055-0.3052,0.1943-0.4653,0.2666
			c-0.1597,0.0723-0.3296,0.126-0.5098,0.1621s-0.3799,0.0537-0.6001,0.0537c-0.2598,0-0.5-0.0352-0.7197-0.1055
			c-0.2202-0.0693-0.4092-0.1748-0.5674-0.3154c-0.1577-0.1406-0.2808-0.3154-0.3687-0.5234
			c-0.0884-0.209-0.1323-0.4521-0.1323-0.7285c0-0.2334,0.061-0.4629,0.1831-0.6895s0.3252-0.4316,0.6089-0.6143
			c0.2842-0.1826,0.6621-0.334,1.1343-0.4541c0.4717-0.1211,1.0576-0.1807,1.7578-0.1807v-0.3633
			c0-0.415-0.0869-0.7227-0.2607-0.9219c-0.1743-0.1992-0.4272-0.2988-0.7593-0.2988c-0.2397,0-0.4399,0.0273-0.6001,0.084
			c-0.1597,0.0557-0.2988,0.1191-0.417,0.1885c-0.1177,0.0703-0.2271,0.1328-0.3267,0.1895c-0.1001,0.0557-0.21,0.084-0.3301,0.084
			c-0.1001,0-0.186-0.0264-0.2583-0.0781c-0.0718-0.0518-0.1299-0.1162-0.1738-0.1924l-0.27-0.4736
			c0.708-0.6484,1.562-0.9717,2.562-0.9717c0.3599,0,0.6812,0.0586,0.9629,0.1768c0.2822,0.1182,0.521,0.2822,0.7173,0.4922
			c0.1958,0.21,0.3447,0.4609,0.4468,0.7529s0.1533,0.6113,0.1533,0.96V46.3408z M52.5231,45.417
			c0.1523,0,0.292-0.0137,0.4199-0.042c0.1284-0.0273,0.249-0.0684,0.3633-0.124c0.1138-0.0547,0.2241-0.1221,0.3301-0.2031
			s0.2129-0.1768,0.3208-0.2871v-1.0303c-0.4321,0-0.793,0.0273-1.083,0.082s-0.5229,0.124-0.6987,0.208
			c-0.1763,0.085-0.3013,0.1836-0.375,0.2969c-0.0742,0.1123-0.1113,0.2354-0.1113,0.3682c0,0.2617,0.0771,0.4492,0.231,0.5625
			C52.0744,45.3604,52.2751,45.417,52.5231,45.417z"/>
		<path d="M56.8615,46.3408v-6.1563h0.9063c0.1919,0,0.3179,0.0898,0.3779,0.2705l0.1021,0.4854
			c0.1235-0.1279,0.2549-0.2432,0.3926-0.3477c0.1382-0.1035,0.2842-0.1943,0.438-0.2695c0.1543-0.0762,0.3193-0.1348,0.4951-0.1748
			c0.1763-0.04,0.3682-0.0596,0.5762-0.0596c0.3359,0,0.6338,0.0566,0.894,0.1709c0.2598,0.1143,0.4771,0.2744,0.6509,0.4805
			s0.3062,0.4512,0.396,0.7373s0.1348,0.6016,0.1348,0.9453v3.918h-1.4819v-3.918c0-0.376-0.0869-0.667-0.2607-0.873
			c-0.1743-0.2061-0.4351-0.3086-0.7832-0.3086c-0.2559,0-0.4961,0.0576-0.7197,0.1738c-0.2241,0.1162-0.436,0.2734-0.6362,0.4736
			v4.4521H56.8615z"/>
		<path d="M65.8132,40.0771c0.2642,0,0.5122,0.0264,0.7441,0.0811c0.2319,0.0537,0.4438,0.1328,0.6357,0.2363h1.77v0.5527
			c0,0.0918-0.0239,0.1641-0.0718,0.2158s-0.1299,0.0879-0.2461,0.1074l-0.5518,0.1025c0.0396,0.1035,0.0708,0.2139,0.0928,0.3301
			s0.0332,0.2373,0.0332,0.3652c0,0.3047-0.061,0.5791-0.1831,0.8252s-0.29,0.4551-0.5039,0.627
			c-0.2144,0.1719-0.4683,0.3057-0.7622,0.3994s-0.6128,0.1406-0.957,0.1406c-0.2319,0-0.458-0.0215-0.6777-0.0654
			c-0.1924,0.1162-0.2881,0.248-0.2881,0.3926c0,0.125,0.0571,0.2168,0.1709,0.2754c0.1143,0.0576,0.2642,0.0996,0.4502,0.123
			c0.186,0.0244,0.397,0.0371,0.6328,0.0371s0.478,0.0098,0.7261,0.0293c0.248,0.0205,0.4897,0.0557,0.7261,0.1055
			c0.2358,0.0508,0.4468,0.1299,0.6328,0.2383s0.3359,0.2559,0.4502,0.4424c0.1138,0.1865,0.1709,0.4258,0.1709,0.7188
			c0,0.2734-0.0669,0.5381-0.2012,0.7949c-0.1338,0.2568-0.3276,0.4854-0.582,0.6865c-0.2539,0.2002-0.5649,0.3623-0.9326,0.4844
			c-0.3682,0.1221-0.7881,0.1836-1.2603,0.1836c-0.4678,0-0.874-0.0449-1.2178-0.1348c-0.3442-0.0898-0.6294-0.21-0.855-0.3604
			c-0.2261-0.1494-0.395-0.3232-0.5073-0.5186c-0.1118-0.1963-0.168-0.4004-0.168-0.6123c0-0.2881,0.0879-0.5303,0.2642-0.7256
			c0.1758-0.1963,0.4199-0.3525,0.7319-0.4688c-0.1519-0.084-0.2739-0.1953-0.3662-0.3359
			c-0.0918-0.1396-0.1377-0.3213-0.1377-0.5459c0-0.0918,0.0156-0.1865,0.0479-0.2852c0.0322-0.0977,0.0811-0.1943,0.147-0.291
			c0.0659-0.0957,0.1489-0.1865,0.249-0.2725s0.2183-0.1631,0.354-0.2314c-0.312-0.168-0.5571-0.3916-0.7349-0.6719
			c-0.1782-0.2803-0.2671-0.6074-0.2671-0.9844c0-0.3037,0.061-0.5781,0.1831-0.8242s0.292-0.4561,0.5098-0.6299
			c0.2183-0.1748,0.4761-0.3076,0.7739-0.3994C65.1364,40.123,65.4611,40.0771,65.8132,40.0771z M67.4392,46.5996
			c0-0.123-0.0356-0.2227-0.1079-0.3008c-0.0718-0.0771-0.1699-0.1377-0.2939-0.1807s-0.269-0.0742-0.4351-0.0947
			s-0.3418-0.0303-0.5278-0.0303s-0.3779,0-0.5762,0c-0.1978,0-0.3892-0.0225-0.5728-0.0664
			c-0.168,0.0918-0.3032,0.2012-0.4053,0.3271s-0.1528,0.2705-0.1528,0.4346c0,0.1084,0.0269,0.209,0.0811,0.3037
			c0.0537,0.0938,0.1396,0.1748,0.2578,0.2422c0.1182,0.0684,0.271,0.1211,0.459,0.1592s0.418,0.0576,0.6899,0.0576
			c0.2764,0,0.5142-0.0215,0.7144-0.0645c0.1997-0.043,0.3647-0.1025,0.4946-0.1777c0.1299-0.0762,0.2251-0.166,0.2852-0.2695
			C67.4094,46.835,67.4392,46.7217,67.4392,46.5996z M65.8132,43.1133c0.1841,0,0.3442-0.0254,0.48-0.0752
			c0.1362-0.0498,0.249-0.1191,0.3394-0.207c0.0898-0.0879,0.1577-0.1943,0.2036-0.3184s0.0693-0.2598,0.0693-0.4082
			c0-0.3037-0.0913-0.5449-0.2729-0.7227c-0.1821-0.1777-0.4551-0.2666-0.8193-0.2666c-0.3638,0-0.6367,0.0889-0.8188,0.2666
			s-0.2729,0.4189-0.2729,0.7227c0,0.1445,0.0229,0.2783,0.0688,0.4023s0.1143,0.2314,0.2041,0.3213s0.2041,0.1602,0.3418,0.21
			C65.4743,43.0879,65.6335,43.1133,65.8132,43.1133z"/>
		<path d="M71.2492,40.1846v3.9121c0,0.376,0.0869,0.667,0.2612,0.873c0.1738,0.2061,0.4351,0.3096,0.7827,0.3096
			c0.2559,0,0.4961-0.0576,0.7202-0.1719c0.2236-0.1133,0.436-0.2705,0.6357-0.4707v-4.4521h1.4819v6.1563h-0.9058
			c-0.1919,0-0.3179-0.0898-0.3779-0.2695l-0.1021-0.4922c-0.1279,0.1279-0.2603,0.2451-0.396,0.3506
			c-0.1362,0.1064-0.2813,0.1963-0.4351,0.2705c-0.1538,0.0732-0.3198,0.1318-0.498,0.1738
			c-0.1777,0.042-0.3691,0.0625-0.5728,0.0625c-0.3364,0-0.6333-0.0566-0.8911-0.1709c-0.2583-0.1143-0.4751-0.2744-0.6509-0.4824
			c-0.1763-0.208-0.3091-0.4551-0.3994-0.7412c-0.0898-0.2861-0.1348-0.6016-0.1348-0.9453v-3.9121H71.2492z"/>
		<path d="M81.5393,46.3408h-0.666c-0.1401,0-0.25-0.0215-0.3301-0.0635s-0.1401-0.126-0.1802-0.2549l-0.1318-0.4375
			c-0.1563,0.1396-0.3091,0.2627-0.459,0.3691c-0.1499,0.1055-0.3052,0.1943-0.4653,0.2666
			c-0.1597,0.0723-0.3296,0.126-0.5098,0.1621s-0.3799,0.0537-0.6001,0.0537c-0.2598,0-0.5-0.0352-0.7197-0.1055
			c-0.2202-0.0693-0.4092-0.1748-0.5674-0.3154c-0.1577-0.1406-0.2808-0.3154-0.3687-0.5234
			c-0.0884-0.209-0.1323-0.4521-0.1323-0.7285c0-0.2334,0.061-0.4629,0.1831-0.6895s0.3252-0.4316,0.6089-0.6143
			c0.2842-0.1826,0.6621-0.334,1.1343-0.4541c0.4717-0.1211,1.0576-0.1807,1.7578-0.1807v-0.3633
			c0-0.415-0.0869-0.7227-0.2607-0.9219c-0.1743-0.1992-0.4272-0.2988-0.7593-0.2988c-0.2397,0-0.4399,0.0273-0.6001,0.084
			c-0.1597,0.0557-0.2988,0.1191-0.417,0.1885c-0.1177,0.0703-0.2271,0.1328-0.3267,0.1895c-0.1001,0.0557-0.21,0.084-0.3301,0.084
			c-0.1001,0-0.186-0.0264-0.2583-0.0781c-0.0718-0.0518-0.1299-0.1162-0.1738-0.1924l-0.27-0.4736
			c0.708-0.6484,1.562-0.9717,2.562-0.9717c0.3599,0,0.6812,0.0586,0.9629,0.1768c0.2822,0.1182,0.521,0.2822,0.7173,0.4922
			c0.1958,0.21,0.3447,0.4609,0.4468,0.7529s0.1533,0.6113,0.1533,0.96V46.3408z M78.6589,45.417
			c0.1523,0,0.292-0.0137,0.4199-0.042c0.1284-0.0273,0.249-0.0684,0.3633-0.124c0.1138-0.0547,0.2241-0.1221,0.3301-0.2031
			s0.2129-0.1768,0.3208-0.2871v-1.0303c-0.4321,0-0.793,0.0273-1.083,0.082s-0.5229,0.124-0.6987,0.208
			c-0.1763,0.085-0.3013,0.1836-0.375,0.2969c-0.0742,0.1123-0.1113,0.2354-0.1113,0.3682c0,0.2617,0.0771,0.4492,0.231,0.5625
			C78.2102,45.3604,78.4108,45.417,78.6589,45.417z"/>
		<path d="M85.1271,40.0771c0.2642,0,0.5122,0.0264,0.7441,0.0811c0.2319,0.0537,0.4438,0.1328,0.6357,0.2363h1.77v0.5527
			c0,0.0918-0.0239,0.1641-0.0718,0.2158s-0.1299,0.0879-0.2461,0.1074l-0.5518,0.1025c0.0396,0.1035,0.0708,0.2139,0.0928,0.3301
			s0.0332,0.2373,0.0332,0.3652c0,0.3047-0.061,0.5791-0.1831,0.8252s-0.29,0.4551-0.5039,0.627
			c-0.2144,0.1719-0.4683,0.3057-0.7622,0.3994s-0.6128,0.1406-0.957,0.1406c-0.2319,0-0.458-0.0215-0.6777-0.0654
			c-0.1924,0.1162-0.2881,0.248-0.2881,0.3926c0,0.125,0.0571,0.2168,0.1709,0.2754c0.1143,0.0576,0.2642,0.0996,0.4502,0.123
			c0.186,0.0244,0.397,0.0371,0.6328,0.0371s0.478,0.0098,0.7261,0.0293c0.248,0.0205,0.4897,0.0557,0.7261,0.1055
			c0.2358,0.0508,0.4468,0.1299,0.6328,0.2383s0.3359,0.2559,0.4502,0.4424c0.1138,0.1865,0.1709,0.4258,0.1709,0.7188
			c0,0.2734-0.0669,0.5381-0.2012,0.7949c-0.1338,0.2568-0.3276,0.4854-0.582,0.6865c-0.2539,0.2002-0.5649,0.3623-0.9326,0.4844
			c-0.3682,0.1221-0.7881,0.1836-1.2603,0.1836c-0.4678,0-0.874-0.0449-1.2178-0.1348c-0.3442-0.0898-0.6294-0.21-0.855-0.3604
			c-0.2261-0.1494-0.395-0.3232-0.5073-0.5186c-0.1118-0.1963-0.168-0.4004-0.168-0.6123c0-0.2881,0.0879-0.5303,0.2642-0.7256
			c0.1758-0.1963,0.4199-0.3525,0.7319-0.4688c-0.1519-0.084-0.2739-0.1953-0.3662-0.3359
			c-0.0918-0.1396-0.1377-0.3213-0.1377-0.5459c0-0.0918,0.0156-0.1865,0.0479-0.2852c0.0322-0.0977,0.0811-0.1943,0.147-0.291
			c0.0659-0.0957,0.1489-0.1865,0.249-0.2725s0.2183-0.1631,0.354-0.2314c-0.312-0.168-0.5571-0.3916-0.7349-0.6719
			c-0.1782-0.2803-0.2671-0.6074-0.2671-0.9844c0-0.3037,0.061-0.5781,0.1831-0.8242s0.292-0.4561,0.5098-0.6299
			c0.2183-0.1748,0.4761-0.3076,0.7739-0.3994C84.4504,40.123,84.7751,40.0771,85.1271,40.0771z M86.7531,46.5996
			c0-0.123-0.0356-0.2227-0.1079-0.3008c-0.0718-0.0771-0.1699-0.1377-0.2939-0.1807s-0.269-0.0742-0.4351-0.0947
			s-0.3418-0.0303-0.5278-0.0303s-0.3779,0-0.5762,0c-0.1978,0-0.3892-0.0225-0.5728-0.0664
			c-0.168,0.0918-0.3032,0.2012-0.4053,0.3271s-0.1528,0.2705-0.1528,0.4346c0,0.1084,0.0269,0.209,0.0811,0.3037
			c0.0537,0.0938,0.1396,0.1748,0.2578,0.2422c0.1182,0.0684,0.271,0.1211,0.459,0.1592s0.418,0.0576,0.6899,0.0576
			c0.2764,0,0.5142-0.0215,0.7144-0.0645c0.1997-0.043,0.3647-0.1025,0.4946-0.1777c0.1299-0.0762,0.2251-0.166,0.2852-0.2695
			C86.7233,46.835,86.7531,46.7217,86.7531,46.5996z M85.1271,43.1133c0.1841,0,0.3442-0.0254,0.48-0.0752
			c0.1362-0.0498,0.249-0.1191,0.3394-0.207c0.0898-0.0879,0.1577-0.1943,0.2036-0.3184s0.0693-0.2598,0.0693-0.4082
			c0-0.3037-0.0913-0.5449-0.2729-0.7227c-0.1821-0.1777-0.4551-0.2666-0.8193-0.2666c-0.3638,0-0.6367,0.0889-0.8188,0.2666
			s-0.2729,0.4189-0.2729,0.7227c0,0.1445,0.0229,0.2783,0.0688,0.4023s0.1143,0.2314,0.2041,0.3213s0.2041,0.1602,0.3418,0.21
			C84.7883,43.0879,84.9475,43.1133,85.1271,43.1133z"/>
		<path d="M91.7512,40.0889c0.3882,0,0.7451,0.0625,1.0713,0.1855c0.3257,0.124,0.6069,0.3057,0.8428,0.543
			c0.2358,0.2383,0.4199,0.5303,0.5518,0.876c0.1323,0.3467,0.1982,0.7412,0.1982,1.1855c0,0.1123-0.0049,0.2051-0.0151,0.2793
			c-0.0098,0.0732-0.0278,0.1318-0.0537,0.1738c-0.0264,0.042-0.061,0.0723-0.105,0.0898c-0.0444,0.0176-0.1001,0.0273-0.168,0.0273
			h-3.8042c0.0439,0.6318,0.2139,1.0957,0.5098,1.3916c0.2964,0.2959,0.688,0.4443,1.1763,0.4443
			c0.2397,0,0.4468-0.0283,0.6211-0.084c0.1738-0.0566,0.3257-0.1182,0.4561-0.1865c0.1299-0.0674,0.2437-0.1299,0.3418-0.1855
			c0.0981-0.0566,0.1929-0.084,0.2852-0.084c0.0601,0,0.1118,0.0117,0.1558,0.0361c0.0439,0.0234,0.082,0.0576,0.1143,0.1016
			l0.4316,0.54c-0.1641,0.1924-0.3477,0.3535-0.5518,0.4834s-0.417,0.2334-0.6392,0.3115c-0.2217,0.0781-0.4478,0.1328-0.6777,0.165
			s-0.4531,0.0479-0.6689,0.0479c-0.4282,0-0.8262-0.0713-1.1943-0.2129s-0.688-0.3516-0.96-0.6299s-0.4858-0.6221-0.6421-1.0322
			c-0.1558-0.4102-0.2339-0.8848-0.2339-1.4248c0-0.4199,0.0679-0.8154,0.2041-1.1846c0.1357-0.3701,0.3311-0.6924,0.585-0.9668
			c0.2539-0.2734,0.564-0.4902,0.9302-0.6504C90.8781,40.1689,91.2912,40.0889,91.7512,40.0889z M91.7814,41.1504
			c-0.4321,0-0.7705,0.1221-1.0142,0.3662c-0.2441,0.2441-0.3999,0.5898-0.4683,1.0381h2.7842c0-0.1914-0.0259-0.373-0.0781-0.543
			c-0.0518-0.1699-0.1318-0.3184-0.2397-0.4473c-0.1079-0.1279-0.2441-0.2285-0.4082-0.3027S92.0012,41.1504,91.7814,41.1504z"/>
		<path d="M97.9548,46.3408v-8.916h1.4819v3.5156c0.2441-0.2598,0.52-0.4668,0.8281-0.6211
			c0.3076-0.1533,0.668-0.2305,1.0801-0.2305c0.3359,0,0.6426,0.0693,0.9209,0.207c0.2778,0.1377,0.5181,0.3389,0.7197,0.6025
			c0.2021,0.2646,0.3579,0.5908,0.4683,0.9785c0.1099,0.3877,0.165,0.834,0.165,1.3379c0,0.46-0.062,0.8857-0.186,1.2783
			c-0.124,0.3916-0.3013,0.7314-0.5313,1.0195s-0.5078,0.5127-0.834,0.6748c-0.3257,0.1621-0.6909,0.2432-1.0947,0.2432
			c-0.188,0-0.3604-0.0186-0.5161-0.0566c-0.1563-0.0381-0.2979-0.0908-0.4258-0.1592c-0.1284-0.0684-0.2471-0.1514-0.3574-0.249
			c-0.1099-0.0977-0.2148-0.207-0.3149-0.3271l-0.0659,0.4141c-0.0239,0.1045-0.0649,0.1777-0.123,0.2217
			c-0.0581,0.0449-0.1372,0.0664-0.2368,0.0664H97.9548z M100.8347,41.2412c-0.3081,0-0.5708,0.0645-0.7891,0.1943
			c-0.2178,0.1299-0.4209,0.3135-0.6089,0.5488v2.7607c0.168,0.208,0.3511,0.3525,0.5488,0.4346
			c0.1982,0.082,0.4131,0.123,0.645,0.123c0.2241,0,0.4263-0.042,0.606-0.126c0.1802-0.084,0.333-0.2119,0.459-0.3838
			s0.2231-0.3887,0.291-0.6514c0.0684-0.2617,0.1021-0.5703,0.1021-0.9268c0-0.3604-0.0288-0.665-0.0869-0.915
			s-0.1411-0.4531-0.249-0.6094c-0.1079-0.1553-0.2388-0.2695-0.3931-0.3418C101.2058,41.2764,101.0305,41.2412,100.8347,41.2412z"
			/>
		<path d="M109.6008,46.3408h-0.666c-0.1401,0-0.25-0.0215-0.3301-0.0635s-0.1401-0.126-0.1802-0.2549l-0.1318-0.4375
			c-0.1563,0.1396-0.3091,0.2627-0.459,0.3691c-0.1499,0.1055-0.3052,0.1943-0.4653,0.2666
			c-0.1597,0.0723-0.3296,0.126-0.5098,0.1621s-0.3799,0.0537-0.6001,0.0537c-0.2598,0-0.5-0.0352-0.7197-0.1055
			c-0.2202-0.0693-0.4092-0.1748-0.5674-0.3154c-0.1577-0.1406-0.2808-0.3154-0.3687-0.5234
			c-0.0884-0.209-0.1323-0.4521-0.1323-0.7285c0-0.2334,0.061-0.4629,0.1831-0.6895s0.3252-0.4316,0.6089-0.6143
			c0.2842-0.1826,0.6621-0.334,1.1343-0.4541c0.4717-0.1211,1.0576-0.1807,1.7578-0.1807v-0.3633
			c0-0.415-0.0869-0.7227-0.2607-0.9219c-0.1743-0.1992-0.4272-0.2988-0.7593-0.2988c-0.2397,0-0.4399,0.0273-0.6001,0.084
			c-0.1597,0.0557-0.2988,0.1191-0.417,0.1885c-0.1177,0.0703-0.2271,0.1328-0.3267,0.1895c-0.1001,0.0557-0.21,0.084-0.3301,0.084
			c-0.1001,0-0.186-0.0264-0.2583-0.0781c-0.0718-0.0518-0.1299-0.1162-0.1738-0.1924l-0.27-0.4736
			c0.708-0.6484,1.562-0.9717,2.562-0.9717c0.3599,0,0.6812,0.0586,0.9629,0.1768c0.2822,0.1182,0.521,0.2822,0.7173,0.4922
			c0.1958,0.21,0.3447,0.4609,0.4468,0.7529s0.1533,0.6113,0.1533,0.96V46.3408z M106.7204,45.417
			c0.1523,0,0.292-0.0137,0.4199-0.042c0.1284-0.0273,0.249-0.0684,0.3633-0.124c0.1138-0.0547,0.2241-0.1221,0.3301-0.2031
			s0.2129-0.1768,0.3208-0.2871v-1.0303c-0.4321,0-0.793,0.0273-1.083,0.082s-0.5229,0.124-0.6987,0.208
			c-0.1763,0.085-0.3013,0.1836-0.375,0.2969c-0.0742,0.1123-0.1113,0.2354-0.1113,0.3682c0,0.2617,0.0771,0.4492,0.231,0.5625
			C106.2717,45.3604,106.4724,45.417,106.7204,45.417z"/>
		<path d="M111.0588,46.3408v-6.1563h0.8701c0.1519,0,0.2578,0.0283,0.3179,0.084c0.0601,0.0566,0.1001,0.1523,0.1201,0.2881
			l0.0898,0.7441c0.2202-0.3799,0.478-0.6797,0.7739-0.9004c0.2959-0.2197,0.6279-0.3291,0.9961-0.3291
			c0.3042,0,0.5562,0.0693,0.7559,0.21l-0.1919,1.1094c-0.0117,0.0723-0.0381,0.123-0.0781,0.1533s-0.0938,0.0449-0.1616,0.0449
			c-0.0601,0-0.1421-0.0137-0.2461-0.042s-0.2422-0.042-0.4141-0.042c-0.3081,0-0.5723,0.085-0.792,0.2549
			c-0.2202,0.1699-0.4063,0.4189-0.5581,0.7471v3.834H111.0588z"/>
		<path d="M115.9606,46.3408v-6.1563h0.8701c0.1519,0,0.2578,0.0283,0.3179,0.084c0.0601,0.0566,0.1001,0.1523,0.1201,0.2881
			l0.0898,0.7441c0.2202-0.3799,0.478-0.6797,0.7739-0.9004c0.2959-0.2197,0.6279-0.3291,0.9961-0.3291
			c0.3042,0,0.5562,0.0693,0.7559,0.21l-0.1919,1.1094c-0.0117,0.0723-0.0381,0.123-0.0781,0.1533s-0.0938,0.0449-0.1616,0.0449
			c-0.0601,0-0.1421-0.0137-0.2461-0.042s-0.2422-0.042-0.4141-0.042c-0.3081,0-0.5723,0.085-0.792,0.2549
			c-0.2202,0.1699-0.4063,0.4189-0.5581,0.7471v3.834H115.9606z"/>
		<path d="M122.6623,38.3906c0,0.1279-0.0259,0.248-0.0776,0.3604c-0.0522,0.1123-0.1211,0.21-0.207,0.2939
			c-0.0864,0.084-0.187,0.1514-0.3032,0.2012s-0.2397,0.0752-0.3721,0.0752c-0.1279,0-0.249-0.0254-0.3628-0.0752
			c-0.1143-0.0498-0.2129-0.1172-0.2969-0.2012s-0.1514-0.1816-0.2012-0.2939c-0.0503-0.1123-0.0752-0.2324-0.0752-0.3604
			c0-0.1318,0.0249-0.2559,0.0752-0.3721c0.0498-0.1152,0.1172-0.2158,0.2012-0.2998s0.1826-0.1504,0.2969-0.2012
			c0.1138-0.0498,0.2349-0.0752,0.3628-0.0752c0.1323,0,0.2559,0.0254,0.3721,0.0752c0.1162,0.0508,0.2168,0.1172,0.3032,0.2012
			c0.0859,0.084,0.1548,0.1846,0.207,0.2998C122.6364,38.1348,122.6623,38.2588,122.6623,38.3906z M122.4406,40.1846v6.1563h-1.4819
			v-6.1563H122.4406z"/>
		<path d="M126.6584,40.0889c0.3882,0,0.7451,0.0625,1.0713,0.1855c0.3257,0.124,0.6069,0.3057,0.8428,0.543
			c0.2358,0.2383,0.4199,0.5303,0.5518,0.876c0.1323,0.3467,0.1982,0.7412,0.1982,1.1855c0,0.1123-0.0049,0.2051-0.0151,0.2793
			c-0.0098,0.0732-0.0278,0.1318-0.0537,0.1738c-0.0264,0.042-0.061,0.0723-0.105,0.0898c-0.0444,0.0176-0.1001,0.0273-0.168,0.0273
			h-3.8042c0.0439,0.6318,0.2139,1.0957,0.5098,1.3916c0.2964,0.2959,0.688,0.4443,1.1763,0.4443
			c0.2397,0,0.4468-0.0283,0.6211-0.084c0.1738-0.0566,0.3257-0.1182,0.4561-0.1865c0.1299-0.0674,0.2436-0.1299,0.3418-0.1855
			c0.0981-0.0566,0.1929-0.084,0.2852-0.084c0.0601,0,0.1118,0.0117,0.1558,0.0361c0.0439,0.0234,0.082,0.0576,0.1143,0.1016
			l0.4316,0.54c-0.1641,0.1924-0.3477,0.3535-0.5518,0.4834s-0.417,0.2334-0.6392,0.3115c-0.2217,0.0781-0.4477,0.1328-0.6777,0.165
			s-0.4531,0.0479-0.6689,0.0479c-0.4282,0-0.8262-0.0713-1.1943-0.2129s-0.688-0.3516-0.96-0.6299s-0.4858-0.6221-0.6421-1.0322
			c-0.1558-0.4102-0.2339-0.8848-0.2339-1.4248c0-0.4199,0.0679-0.8154,0.2041-1.1846c0.1357-0.3701,0.3311-0.6924,0.585-0.9668
			c0.2539-0.2734,0.564-0.4902,0.9302-0.6504C125.7853,40.1689,126.1984,40.0889,126.6584,40.0889z M126.6887,41.1504
			c-0.4321,0-0.7705,0.1221-1.0142,0.3662c-0.2441,0.2441-0.3999,0.5898-0.4683,1.0381h2.7842c0-0.1914-0.0259-0.373-0.0781-0.543
			c-0.0518-0.1699-0.1318-0.3184-0.2397-0.4473c-0.1079-0.1279-0.2441-0.2285-0.4082-0.3027S126.9084,41.1504,126.6887,41.1504z"/>
		<path d="M130.5285,46.3408v-6.1563h0.8701c0.1519,0,0.2578,0.0283,0.3179,0.084c0.0601,0.0566,0.1001,0.1523,0.1201,0.2881
			l0.0898,0.7441c0.2202-0.3799,0.478-0.6797,0.7739-0.9004c0.2959-0.2197,0.6279-0.3291,0.9961-0.3291
			c0.3042,0,0.5562,0.0693,0.7559,0.21l-0.1919,1.1094c-0.0117,0.0723-0.0381,0.123-0.0781,0.1533s-0.0938,0.0449-0.1616,0.0449
			c-0.0601,0-0.1421-0.0137-0.2461-0.042s-0.2422-0.042-0.4141-0.042c-0.3081,0-0.5723,0.085-0.792,0.2549
			c-0.2202,0.1699-0.4063,0.4189-0.5581,0.7471v3.834H130.5285z"/>
		<path d="M139.0842,41.3848c-0.04,0.0645-0.082,0.1094-0.126,0.1348c-0.0439,0.0264-0.1001,0.0391-0.168,0.0391
			c-0.0718,0-0.1489-0.0195-0.231-0.0596s-0.1768-0.085-0.2847-0.1348c-0.1084-0.0508-0.2314-0.0957-0.3691-0.1357
			c-0.1382-0.04-0.3013-0.0596-0.4893-0.0596c-0.292,0-0.522,0.0615-0.6899,0.1855s-0.252,0.2861-0.252,0.4863
			c0,0.1318,0.043,0.2432,0.1289,0.333s0.2002,0.1689,0.3423,0.2373c0.1416,0.0674,0.3027,0.1289,0.4829,0.1826
			s0.3638,0.1133,0.5518,0.1768c0.188,0.0645,0.3721,0.1377,0.5522,0.2197s0.3408,0.1855,0.4829,0.3115s0.2559,0.2773,0.3423,0.4531
			c0.0859,0.1758,0.1289,0.3877,0.1289,0.6357c0,0.2959-0.0542,0.5693-0.1621,0.8193s-0.2661,0.4658-0.4741,0.6475
			c-0.208,0.1826-0.4648,0.3242-0.771,0.4268c-0.3062,0.1016-0.6567,0.1523-1.0527,0.1523c-0.2124,0-0.4194-0.0186-0.6211-0.0566
			c-0.2021-0.0381-0.396-0.0908-0.582-0.1592c-0.186-0.0674-0.3579-0.1475-0.5161-0.2402c-0.1582-0.0918-0.2969-0.1914-0.417-0.2998
			l0.3423-0.5635c0.0439-0.0684,0.0957-0.1201,0.1558-0.1563s0.1357-0.0537,0.228-0.0537c0.0918,0,0.1787,0.0254,0.2607,0.0771
			c0.082,0.0527,0.1772,0.1084,0.2852,0.168c0.1079,0.0605,0.2349,0.1162,0.3809,0.1689c0.146,0.0518,0.3311,0.0771,0.5552,0.0771
			c0.1758,0,0.3271-0.0205,0.4531-0.0625s0.23-0.0967,0.312-0.165s0.1416-0.1475,0.1797-0.2373s0.0571-0.1826,0.0571-0.2783
			c0-0.1445-0.043-0.2627-0.1289-0.3545s-0.2002-0.1719-0.3418-0.2402c-0.1421-0.0674-0.3042-0.1289-0.4863-0.1826
			s-0.3682-0.1133-0.5581-0.1768c-0.1899-0.0645-0.376-0.1396-0.5576-0.2256c-0.1821-0.0859-0.3442-0.1943-0.4863-0.3271
			c-0.1421-0.1318-0.2559-0.2939-0.3418-0.4854c-0.0859-0.1924-0.1289-0.4238-0.1289-0.6963c0-0.252,0.0498-0.4922,0.1499-0.7197
			c0.1001-0.2285,0.2471-0.4268,0.4409-0.5977c0.1938-0.1699,0.436-0.3057,0.7261-0.4072c0.29-0.1025,0.625-0.1533,1.0049-0.1533
			c0.4238,0,0.8101,0.0703,1.1582,0.21c0.3477,0.1396,0.6377,0.3242,0.8701,0.5518L139.0842,41.3848z"/>
	</g>
	<g>
	</g>
	<g>
	</g>
	<g>
	</g>
	<g>
	</g>
	<g>
	</g>
	<g>
	</g>
</g>
</svg>
